<svg width="97" height="20" viewBox="0 0 97 20" fill="none" xmlns="http://www.w3.org/2000/svg">
<path d="M31.0155 0.00721175L24.8374 16.1895H27.6799L29.0422 12.3637H35.9014L37.2628 16.1895H40.1053L33.9534 0.00721175H31.0155ZM29.8178 10.1244L32.4723 2.47453H32.5181L35.1501 10.1244H29.8178ZM47.6784 4.30632C45.8006 4.30632 44.6254 5.16722 43.991 5.98125H43.9452V4.62364H41.4545V20H43.9452V14.8093H43.991C44.6263 15.6702 45.8006 16.5284 47.6784 16.5284C50.7314 16.5284 53.0106 14.2216 53.0106 10.4174C53.0116 6.61588 50.7314 4.30632 47.6784 4.30632ZM47.2078 14.5822C45.2111 14.5822 43.9676 12.9748 43.9676 10.4174C43.9676 7.83737 45.2111 6.25439 47.2078 6.25439C49.3691 6.25439 50.5209 8.15469 50.5209 10.4174C50.5209 12.6801 49.3691 14.5822 47.2078 14.5822ZM57.9265 4.62364H60.1833V6.56901H57.9265V12.8387C57.9265 14.1531 58.5843 14.3108 60.1833 14.2207V16.167C59.6902 16.2796 59.1466 16.3472 58.4888 16.3472C56.5184 16.3472 55.4358 15.4863 55.4358 13.0434V6.56991H53.6993V4.62364H55.4358V0.979897H57.9265V4.62364ZM62.3596 4.62364H64.8269V16.1895H62.3596V4.62364ZM64.9916 1.34679C64.9916 2.09051 64.3656 2.69359 63.5937 2.69359C62.8218 2.69359 62.1959 2.09051 62.1959 1.34679C62.1959 0.603083 62.8209 0 63.5928 0C64.3656 0 64.9916 0.603083 64.9916 1.34679ZM73.4835 4.30091C71.6281 4.30091 70.4539 5.13928 69.8186 6.02181H69.7727V0.00180294H67.3054V16.1841H69.7727V14.8472H69.8186C70.4539 15.6396 71.6281 16.5221 73.4835 16.5221C76.559 16.5221 78.8391 14.2153 78.8391 10.4111C78.8391 6.60957 76.559 4.30091 73.4835 4.30091ZM73.0475 14.5704C71.0274 14.5704 69.784 12.9631 69.784 10.4057C69.784 7.82565 71.0274 6.24267 73.0475 6.24267C75.2088 6.24267 76.3606 8.14297 76.3606 10.4057C76.3606 12.6683 75.2088 14.5704 73.0475 14.5704ZM80.8367 0.00180294H83.3274V16.1841H80.8367V0.00180294ZM91.2692 14.5768C89.0845 14.5768 87.7923 12.9694 87.7923 11.0241H97C97 6.90525 95.0988 4.30181 91.2234 4.30181C87.6043 4.30181 85.3241 6.65735 85.3241 10.4129C85.3241 14.0341 87.6043 16.5239 91.3375 16.5239C94.4167 16.5239 96.2038 14.849 96.812 12.6539H94.3447C94.1351 13.3544 93.3117 14.5768 91.2692 14.5768ZM91.2215 6.18047C93.2181 6.18047 94.5346 7.47048 94.5346 9.25809H87.7905C87.7905 7.47048 89.2248 6.18047 91.2215 6.18047Z" fill="#111920"/>
<path fill-rule="evenodd" clip-rule="evenodd" d="M19.8027 9.6432V5.78592L13.8619 0H9.90138H9.90131H5.9037L0 5.78592V9.6432L9.90135 3.20438e-05L19.8027 9.6432ZM13.862 16.3934H10.8916V7.55479V3.69751L13.862 6.59047L19.8028 12.3764V16.2337L13.862 10.4477V16.3934ZM5.94081 16.3934H8.91122V7.55481L8.91124 7.55479V3.69751L8.91122 3.69753V3.69751L5.94081 6.59047L0 12.3764V16.2337L5.94081 10.4478V16.3934Z" fill="#E09600"/>
</svg>
